<?xml version="1.0" encoding="UTF-8" standalone="no"?>
<svg
   xmlns:dc="http://purl.org/dc/elements/1.1/"
   xmlns:cc="http://creativecommons.org/ns#"
   xmlns:rdf="http://www.w3.org/1999/02/22-rdf-syntax-ns#"
   xmlns:svg="http://www.w3.org/2000/svg"
   xmlns="http://www.w3.org/2000/svg"
   xmlns:sodipodi="http://sodipodi.sourceforge.net/DTD/sodipodi-0.dtd"
   xmlns:inkscape="http://www.inkscape.org/namespaces/inkscape"
   viewBox="0 0 24 24"
   width="24"
   height="24"
   version="1.1"
   id="svg6"
   sodipodi:docname="magic-fill.svg"
   inkscape:version="1.0.1 (3bc2e813f5, 2020-09-07)">
  <metadata
     id="metadata12">
    <rdf:RDF>
      <cc:Work
         rdf:about="">
        <dc:format>image/svg+xml</dc:format>
        <dc:type
           rdf:resource="http://purl.org/dc/dcmitype/StillImage" />
      </cc:Work>
    </rdf:RDF>
  </metadata>
  <defs
     id="defs10" />
  <sodipodi:namedview
     pagecolor="#ffffff"
     bordercolor="#666666"
     borderopacity="1"
     objecttolerance="10"
     gridtolerance="10"
     guidetolerance="10"
     inkscape:pageopacity="0"
     inkscape:pageshadow="2"
     inkscape:window-width="1846"
     inkscape:window-height="1057"
     id="namedview8"
     showgrid="false"
     inkscape:zoom="1.6388673"
     inkscape:cx="-32.289663"
     inkscape:cy="-16.026428"
     inkscape:window-x="66"
     inkscape:window-y="-8"
     inkscape:window-maximized="1"
     inkscape:current-layer="svg6" />
  <path
     fill="none"
     d="M0 0h24v24H0z"
     id="path2" />
  <path
     d="M15.224 15.508l-2.213 4.65a.6.6 0 0 1-.977.155l-3.542-3.739a.6.6 0 0 0-.357-.182l-5.107-.668a.6.6 0 0 1-.449-.881l2.462-4.524a.6.6 0 0 0 .062-.396L4.16 4.86a.6.6 0 0 1 .7-.7l5.063.943a.6.6 0 0 0 .396-.062l4.524-2.462a.6.6 0 0 1 .881.45l.668 5.106a.6.6 0 0 0 .182.357l3.739 3.542a.6.6 0 0 1-.155.977l-4.65 2.213a.6.6 0 0 0-.284.284zm.797 1.927l1.414-1.414 4.243 4.242-1.415 1.415-4.242-4.243z"
     id="path4"
     style="fill:#ffffff;fill-opacity:1" />
</svg>
